Format : AVI
Format/Info : Audio Video Interleave
File size : 607 MiB
Duration : 1h 34mn
Overall bit rate : 899 Kbps
Writing application : MEncoder SVN-r29352(20090610-gcc4.3.3)
Writing library : MPlayer

Video
ID : 0
Format : MPEG-4 Visual
Format profile : AdvancedSimple@L5
Format settings, BVOP : Yes
Format settings, QPel : No
Format settings, GMC : No warppoints
Format settings, Matrix : Default (H.263)
Codec ID : XVID
Codec ID/Hint : XviD
Duration : 1h 34mn
Bit rate : 759 Kbps
Width : 640 pixels
Height : 360 pixels
Display aspect ratio : 16:9
Frame rate : 25.000 fps
Resolution : 24 bits
Colorimetry : 4:2:0
Scan type : Progressive
Bits/(Pixel*Frame) : 0.132
Stream size : 512 MiB (84%)
Writing library : XviD 1.2.1 (UTC 2008-12-04)

Audio
ID : 1
Format : MPEG Audio
Format version : Version 1
Format profile : Layer 3
Codec ID : 55
Codec ID/Hint : MP3
Duration : 1h 34mn
Bit rate mode : Constant
Bit rate : 128 Kbps
Channel(s) : 2 channels
Sampling rate : 44.1 KHz
Resolution : 16 bits
Video delay : 40ms
Stream size : 86.4 MiB (14%)
Alignment : Aligned on interleaves
Interleave, duration : 26 ms (0.65 video frame)
Interleave, preload duration : 522 ms
Writing library : LAME3.98

Attack On Darfur, which stars Billy Zane, Edward Furlong and Kristanna Loken, is the story of a group of Western journalists in Sudan who visit a small village to gather footage and interviews in hopes of reporting on the atrocities they have seen. When they hear that the Janjaweed are heading towards the village, they are confronted with the dilemma of whether to run for safety or to stay behind and attempt to avert the village’s slaughter.
 
http://www.imdb.com/title/tt1660309/

screens
 
http://img827.imageshack.us/img827/7364/attackondarfurxvidvicea.jpg 
http://img261.imageshack.us/img261/7364/attackondarfurxvidvicea.jpg 
http://img232.imageshack.us/img232/7364/attackondarfurxvidvicea.jpg 
http://img257.imageshack.us/img257/7364/attackondarfurxvidvicea.jpg
 
http://img94.imageshack.us/img94/7364/attackondarfurxvidvicea.jpg